<svg width="181" height="36" viewBox="0 0 181 36" fill="none" xmlns="http://www.w3.org/2000/svg">
<g clip-path="url(#clip0_9661_90026)">
<path d="M73.9098 22.3956C76.1025 23.6622 78.5707 24.3793 81.1024 24.4854C82.6439 24.4854 83.5812 24.0699 83.5812 23.0832C83.5812 21.681 81.542 21.8202 78.7903 21.1326C75.3471 20.2809 73.3078 18.8475 73.3078 15.8832C73.3078 12.063 76.751 9.89221 81.2712 9.89221C83.6705 9.86981 86.0471 10.357 88.243 11.3214V16.0494C86.152 14.8921 83.8206 14.2336 81.4316 14.1258C79.9443 14.1258 79.0632 14.5641 79.0632 15.3888C79.0632 16.6539 81.0191 16.6539 83.7187 17.2584C87.1911 18.1101 89.3137 19.4292 89.3137 22.5618C89.3137 26.5087 85.7851 28.6899 81.1295 28.6899C78.655 28.6996 76.2067 28.1841 73.9473 27.1776L73.9202 22.3998L73.9098 22.3956ZM104.759 27.7551C103.495 28.4223 102.084 28.7623 100.654 28.7439C99.7811 28.7834 98.9098 28.6427 98.0944 28.3307C97.2789 28.0186 96.5369 27.5419 95.9148 26.9304C94.9504 25.9146 94.3171 24.4023 94.3171 21.5169V14.8695H91.3676V10.2495H94.3171V3.21569H99.9413V10.2495H104.763V14.8944H99.9371V20.9664C99.9371 22.7259 100.354 24.045 102.06 24.045C103.005 23.9955 103.929 23.7425 104.768 23.3034V27.7551H104.759ZM146.974 3.21569H152.598V17.8899H152.681L159.047 10.2038H165.411L158.441 18.3054L165.94 28.3097H159.293L152.652 19.0719H152.569V28.2765H146.945L146.974 3.21569ZM172.293 22.836C172.293 20.1147 172.918 18.6585 174.855 18.027V17.9439C172.926 17.3207 172.293 15.8666 172.293 13.1349V6.64743C172.293 4.69683 171.603 4.00923 169.952 4.00923C169.48 4.0144 169.009 4.06097 168.546 4.14841V0.220196C169.392 0.0788637 170.249 0.00523074 171.108 0C175.49 0 177.473 2.47409 177.473 5.991V13.3551C177.473 15.2247 177.996 15.9663 179.925 15.9663H181V20.0046H179.925C177.996 20.0046 177.473 20.7483 177.473 22.6158V30.009C177.473 33.5259 175.434 36 171.108 36C170.249 35.9948 169.392 35.9211 168.546 35.7798V31.8495C169.006 31.9583 169.478 32.0134 169.952 32.0136C171.576 32.0136 172.293 31.3281 172.293 29.3754V22.836ZM124.965 24.1281C124.194 24.1281 123.863 23.5506 123.863 22.6989V16.5708C123.941 15.6358 123.798 14.6955 123.443 13.8263C123.089 12.9571 122.534 12.1835 121.823 11.5686C120.052 10.3352 117.919 9.72628 115.762 9.8382C113.561 9.8176 111.384 10.2971 109.396 11.2404V16.0494C111.023 15.1421 112.85 14.651 114.714 14.6202C115.712 14.5405 116.707 14.8125 117.524 15.3888C117.763 15.6466 117.947 15.9499 118.066 16.2805C118.184 16.611 118.234 16.962 118.214 17.3124V18.027C117.181 17.8069 116.128 17.6962 115.072 17.6967C113.289 17.6163 111.521 18.0559 109.984 18.9618C109.272 19.442 108.695 20.0938 108.304 20.8566C107.914 21.6193 107.723 22.4682 107.751 23.3242C107.728 24.1521 107.913 24.9724 108.288 25.7112C108.664 26.45 109.218 27.0839 109.9 27.5557C111.158 28.3555 112.625 28.7667 114.116 28.7377C115.93 28.7666 117.71 28.2395 119.213 27.2275L119.27 27.1984C119.795 27.6895 120.416 28.0693 121.093 28.315C121.769 28.5606 122.489 28.6669 123.209 28.6276C124.141 28.6537 125.068 28.4661 125.917 28.0792V23.9079C125.619 24.0505 125.294 24.1257 124.965 24.1281ZM118.241 23.9079C117.466 24.3728 116.583 24.6284 115.679 24.6495C114.356 24.6495 113.335 24.0263 113.335 22.836C113.335 21.4338 114.793 20.9955 116.228 20.9955C116.907 20.994 117.583 21.077 118.241 21.2427V23.9079ZM143.424 27.3438C141.579 28.2994 139.523 28.7806 137.444 28.7439C131.601 28.7439 127.237 24.7596 127.237 19.3191C127.237 13.6293 131.978 9.8382 137.681 9.8382C139.562 9.83916 141.417 10.2713 143.104 11.1012V16.2945C141.597 15.2674 139.83 14.6863 138.006 14.6181C137.144 14.5779 136.287 14.7743 135.529 15.186C134.771 15.5977 134.141 16.2089 133.707 16.953C133.267 17.6916 133.038 18.536 133.044 19.3951C133.05 20.2541 133.291 21.0953 133.741 21.8277C134.191 22.5601 134.833 23.1561 135.598 23.5512C136.363 23.9464 137.222 24.1257 138.081 24.0699C140.011 24.0404 141.881 23.4059 143.429 22.2564V27.3417L143.424 27.3438ZM64.1279 3.51691H69.7521V28.3326H64.1279V3.51691ZM30.5913 27.3438C28.75 28.2828 26.708 28.7632 24.6401 28.7439C18.8076 28.7439 14.4437 24.7596 14.4437 19.3191C14.4437 13.6293 19.1846 9.8382 24.8879 9.8382C26.7614 9.84256 28.6091 10.2746 30.2892 11.1012V16.2945C28.782 15.2674 27.0142 14.6862 25.19 14.6181C24.3306 14.5823 23.4775 14.7793 22.7214 15.1881C21.9653 15.597 21.3343 16.2024 20.8955 16.9402C20.4567 17.6779 20.2265 18.5205 20.2293 19.3782C20.2321 20.236 20.4678 21.077 20.9115 21.8119C21.3644 22.5454 22.0087 23.1425 22.7755 23.5391C23.5423 23.9357 24.4028 24.1171 25.265 24.0637C27.1859 24.0383 29.0486 23.4031 30.5829 22.2502V27.3355L30.5913 27.3438ZM50.5883 24.1281C49.8175 24.1281 49.4863 23.5506 49.4863 22.6989V16.5708C49.5651 15.6358 49.4215 14.6955 49.0671 13.8263C48.7128 12.9571 48.1577 12.1835 47.4471 11.5686C45.6762 10.3346 43.5429 9.72564 41.3855 9.8382C39.1844 9.81782 37.0075 10.2973 35.0198 11.2404V16.0494C36.6469 15.1423 38.4739 14.6513 40.3377 14.6202C41.3358 14.5401 42.3303 14.8121 43.1477 15.3888C43.3871 15.6463 43.5716 15.9495 43.6901 16.2801C43.8086 16.6108 43.8586 16.9619 43.8372 17.3124V18.027C42.8047 17.8068 41.7518 17.6961 40.696 17.6967C38.9083 17.6009 37.1329 18.0416 35.5988 18.9618C34.8881 19.4423 34.3106 20.0941 33.9202 20.8568C33.5298 21.6195 33.3391 22.4683 33.3658 23.3242C33.3447 24.1519 33.53 24.9719 33.9052 25.7105C34.2804 26.4491 34.8338 27.0831 35.5155 27.5557C36.7733 28.3555 38.2401 28.7667 39.7316 28.7377C41.5456 28.7666 43.3248 28.2395 44.8287 27.2275L44.8849 27.1984C45.411 27.6897 46.0315 28.0696 46.7088 28.3152C47.3862 28.5608 48.1064 28.6671 48.826 28.6276C49.7589 28.6539 50.6853 28.4662 51.534 28.0792V23.9079C51.2387 24.0496 50.9159 24.1248 50.5883 24.1281ZM43.8372 23.9079C43.0622 24.3728 42.1792 24.6284 41.2751 24.6495C39.9524 24.6495 38.9338 24.0263 38.9338 22.836C38.9338 21.4338 40.3919 20.9955 41.8271 20.9955C42.5048 20.9941 43.1801 21.0771 43.8372 21.2427V23.9079ZM54.446 3.51691H60.0702V28.3326H54.446V3.51691ZM3.52656 22.6158C3.52656 20.7462 3.00372 20.0046 1.07484 20.0046H0V15.9663H1.07484C3.00372 15.9663 3.52656 15.2247 3.52656 13.3551V5.991C3.52656 2.44501 5.56583 0 9.89227 0C10.7508 0.00523074 11.6076 0.0788637 12.4544 0.220196V4.15464C11.9944 4.04514 11.5233 3.98937 11.0504 3.98846C9.42359 3.98846 8.70703 4.67605 8.70703 6.62666V13.1079C8.70703 15.8292 8.08212 17.2854 6.14491 17.9169V18C8.07379 18.6232 8.70703 20.0773 8.70703 22.809V29.2902C8.70703 31.2409 9.42359 31.9284 11.0504 31.9284C11.5233 31.9275 11.9944 31.8718 12.4544 31.7623V35.6926C11.6076 35.8339 10.7508 35.9075 9.89227 35.9128C5.51792 35.9128 3.52656 33.4387 3.52656 29.9217V22.6158Z" fill="white"/>
</g>
<defs>
<clipPath id="clip0_9661_90026">
<rect width="181" height="36" fill="white"/>
</clipPath>
</defs>
</svg>
