<svg width="66" height="36" viewBox="0 0 66 36" fill="none" xmlns="http://www.w3.org/2000/svg">
<path d="M29.79 27.3438C27.9717 28.2828 25.9552 28.7632 23.913 28.7439C18.1533 28.7439 13.8439 24.7596 13.8439 19.3191C13.8439 13.6293 18.5257 9.8382 24.1578 9.8382C26.0079 9.84256 27.8325 10.2746 29.4917 11.1012V16.2945C28.0033 15.2674 26.2576 14.6862 24.4561 14.6181C23.8181 14.586 23.1804 14.6859 22.582 14.9116C21.9837 15.1374 21.4373 15.4842 20.9765 15.9309C20.5156 16.3776 20.15 16.9147 19.9021 17.5092C19.6542 18.1037 19.5293 18.743 19.5349 19.3881C19.5405 20.0331 19.6766 20.6702 19.9348 21.2602C20.193 21.8502 20.5679 22.3807 21.0364 22.8191C21.505 23.2575 22.0573 23.5946 22.6595 23.8097C23.2617 24.0248 23.9011 24.1134 24.5384 24.0699C26.4353 24.0445 28.2749 23.4093 29.79 22.2564V27.3417V27.3438ZM3.48256 22.6158C3.48256 20.7462 2.96625 20.0046 1.06143 20.0046H0V15.9663H1.06143C2.96625 15.9663 3.48256 15.2247 3.48256 13.3551V5.991C3.48256 2.44501 5.4964 0 9.76886 0C10.6167 0.00523074 11.4628 0.0788637 12.299 0.220196V4.15464C11.8448 4.04514 11.3795 3.98937 10.9126 3.98846C9.30603 3.98846 8.59841 4.67605 8.59841 6.62666V13.1079C8.59841 15.8292 7.9813 17.2854 6.06826 17.9169V18C7.97307 18.6232 8.59841 20.0773 8.59841 22.809V29.2902C8.59841 31.2409 9.30603 31.9284 10.9126 31.9284C11.3795 31.9275 11.8448 31.8718 12.299 31.7623V35.6926C11.4628 35.8339 10.6167 35.9075 9.76886 35.9128C5.44909 35.9128 3.48256 33.4387 3.48256 29.9218V22.6158ZM32.1926 3.2157H37.7466V17.8899H37.8289L44.1131 10.2038H50.3974L43.5125 18.3054L50.9178 28.3098H44.3579L37.798 19.0719H37.7178V28.2765H32.1638L32.1926 3.2157ZM57.4016 22.836C57.4016 20.1147 58.0187 18.6585 59.9317 18.027V17.9439C58.0269 17.3207 57.4016 15.8666 57.4016 13.1349V6.64743C57.4016 4.69683 56.7207 4.00923 55.0874 4.00923C54.6221 4.0145 54.1582 4.06107 53.701 4.14841V0.220196C54.5372 0.0788637 55.3833 0.00523074 56.2311 0C60.5509 0 62.5174 2.47409 62.5174 5.991V13.3551C62.5174 15.2247 63.0338 15.9663 64.9386 15.9663H66V20.0046H64.9386C63.0338 20.0046 62.5174 20.7483 62.5174 22.6158V30.009C62.5174 33.5259 60.5036 36 56.2311 36C55.3833 35.9948 54.5372 35.9211 53.701 35.7798V31.8495C54.1553 31.9582 54.6205 32.0133 55.0874 32.0136C56.694 32.0136 57.4016 31.3281 57.4016 29.3754V22.836Z" fill="white"/>
</svg>
